<svg xmlns="http://www.w3.org/2000/svg" viewBox="0 0 8.17 7.21"><defs><style>.cls-1{fill:#dd1972;}.cls-2{fill:#fff;}</style></defs><title>error-icon</title><g id="Layer_1" data-name="Layer 1"><path class="cls-1" d="M.26,6,3.62.38a.63.63,0,0,1,.88,0L7.91,6.08a.61.61,0,0,1-.43,1.06L.71,7.07A.63.63,0,0,1,.26,6Z"/><path class="cls-2" d="M4.5,4.74H3.68L3.55,2.39H4.63Zm-.94.88a.49.49,0,0,1,.14-.36.57.57,0,0,1,.39-.12.57.57,0,0,1,.39.12.53.53,0,0,1,.13.36A.47.47,0,0,1,4.47,6a.56.56,0,0,1-.38.12A.61.61,0,0,1,3.7,6,.47.47,0,0,1,3.56,5.62Z"/></g></svg>